<svg width="28" height="28" viewBox="0 0 28 28" fill="none" xmlns="http://www.w3.org/2000/svg">
<path d="M4.25 5.66667C3.35117 5.66667 2.625 6.41146 2.625 7.33333V9.41146L12.5578 16.8802C13.416 17.526 14.584 17.526 15.4422 16.8802L25.375 9.41146V7.33333C25.375 6.41146 24.6488 5.66667 23.75 5.66667H4.25ZM2.625 11.4792V20.6667C2.625 21.5885 3.35117 22.3333 4.25 22.3333H23.75C24.6488 22.3333 25.375 21.5885 25.375 20.6667V11.4792L16.402 18.224C14.9699 19.2969 13.025 19.2969 11.598 18.224L2.625 11.4792ZM1 7.33333C1 5.49479 2.45742 4 4.25 4H23.75C25.5426 4 27 5.49479 27 7.33333V20.6667C27 22.5052 25.5426 24 23.75 24H4.25C2.45742 24 1 22.5052 1 20.6667V7.33333Z" fill="#FF5A10" stroke="#FF5A10" stroke-width="0.5"/>
</svg>
