<svg width="28" height="28" viewBox="0 0 28 28" fill="none" xmlns="http://www.w3.org/2000/svg">
<path d="M9.66473 12.4573C9.96339 14.576 11.6527 16.7227 13.8741 16.7227C16.0954 16.7227 17.7847 14.576 18.0834 12.4573C18.5501 12.2987 18.8861 11.8413 18.8861 11.3093C18.8861 10.964 18.7461 10.6373 18.5034 10.4133C18.6154 9.97465 18.6714 9.52665 18.6714 9.07865C18.6714 6.28799 16.5154 4.01999 13.8741 4.01999C11.2327 4.01999 9.07673 6.28799 9.07673 9.07865C9.07673 9.53599 9.13273 9.98399 9.24473 10.4133C9.00206 10.6373 8.86206 10.964 8.86206 11.3093C8.87139 11.8413 9.19806 12.2987 9.66473 12.4573ZM9.89806 10.9547C10.0847 10.8707 10.1781 10.656 10.1127 10.46C9.97273 10.012 9.89806 9.55465 9.89806 9.07865C9.89806 6.73599 11.6807 4.83199 13.8741 4.83199C16.0674 4.83199 17.8501 6.73599 17.8501 9.07865C17.8501 9.54532 17.7754 10.012 17.6354 10.46C17.5701 10.656 17.6634 10.8707 17.8501 10.9547C17.9807 11.0107 18.0647 11.16 18.0647 11.3093C18.0647 11.524 17.9154 11.692 17.7101 11.692C17.4954 11.692 17.3181 11.86 17.2994 12.0747C17.1687 13.8853 15.7221 15.9013 13.8741 15.9013C12.0261 15.9013 10.5794 13.8853 10.4487 12.0747C10.4301 11.86 10.2434 11.692 10.0287 11.692C9.84206 11.692 9.68339 11.5147 9.68339 11.3093C9.68339 11.1507 9.76739 11.0107 9.89806 10.9547Z" stroke="#F56D00"/>
<path d="M23.7674 21.2773C21.9381 19.4947 19.6981 18.2347 17.2901 17.628C17.1874 17.5813 17.0661 17.5533 16.9541 17.5533H16.7394C16.6088 17.5533 16.4688 17.5907 16.3568 17.6467C15.7034 18.0013 14.7981 18.1973 13.8741 18.1973C12.9501 18.1973 12.0448 17.992 11.3914 17.6467C11.2701 17.5813 11.1394 17.5533 11.0088 17.5533H10.8501C10.7941 17.5533 10.7288 17.5627 10.6634 17.572C8.18076 18.16 5.86609 19.4387 3.98076 21.268C3.82209 21.4173 3.72876 21.632 3.72876 21.856V23.3213C3.72876 23.7693 4.09276 24.1427 4.55009 24.1427H23.1888C23.6368 24.1427 24.0101 23.7787 24.0101 23.3213V21.856C24.0101 21.6413 23.9261 21.4267 23.7674 21.2773ZM23.1888 23.3213H4.55009V21.8653C6.33276 20.1387 8.50743 18.9347 10.8501 18.3747H11.0088C11.7741 18.7853 12.8194 19.028 13.8741 19.028C14.9288 19.028 15.9741 18.7947 16.7394 18.384H16.9541C16.9821 18.4027 17.0194 18.412 17.0568 18.4213C19.3341 18.9907 21.4621 20.1853 23.1981 21.8747L23.1888 23.3213ZM23.1981 23.732V23.3213V23.732Z" stroke="#F56D00"/>
</svg>
