<svg width="28" height="28" viewBox="0 0 28 28" fill="none" xmlns="http://www.w3.org/2000/svg">
<path d="M24.9621 14.3513C24.9621 8.53659 20.2675 3.80459 14.4621 3.73926C14.4435 3.73926 14.4155 3.73926 14.3968 3.73926C14.3781 3.73926 14.3595 3.73926 14.3408 3.73926C14.3315 3.73926 14.3221 3.73926 14.3128 3.73926C14.3035 3.73926 14.2941 3.73926 14.2754 3.73926C8.45145 3.77659 3.72879 8.51792 3.72879 14.3513C3.72879 20.1846 8.45145 24.9259 14.2754 24.9633C14.2848 24.9633 14.2941 24.9633 14.3128 24.9633C14.3221 24.9633 14.3315 24.9633 14.3408 24.9633C14.3595 24.9633 14.3781 24.9633 14.3968 24.9633C14.4155 24.9633 14.4435 24.9633 14.4621 24.9633C20.2675 24.8979 24.9621 20.1659 24.9621 14.3513ZM4.60613 14.7806H8.80613C8.83413 16.1619 8.99278 17.4779 9.26345 18.6633H5.61411C5.02611 17.4873 4.67146 16.1713 4.60613 14.7806ZM24.0941 13.9219H19.9221C19.8941 12.5593 19.7448 11.2806 19.4835 10.1046H23.1328C23.6928 11.2619 24.0381 12.5593 24.0941 13.9219ZM19.0634 13.9219H14.7795V10.1046H18.5781C18.8581 11.2713 19.0354 12.5686 19.0634 13.9219ZM14.7795 9.24592V4.63526C16.2635 4.89659 17.5795 6.69792 18.3448 9.24592H14.7795ZM13.9208 4.63526V9.23659H10.3741C11.1395 6.70726 12.4461 4.91526 13.9208 4.63526ZM13.9208 10.1046V13.9219H9.6648C9.69281 12.5686 9.86079 11.2713 10.1408 10.1046H13.9208ZM8.80613 13.9219H4.60613C4.66213 12.5593 5.00746 11.2713 5.56746 10.1046H9.23545C8.98345 11.2713 8.83413 12.5593 8.80613 13.9219ZM9.6648 14.7806H13.9208V18.6633H10.1595C9.87014 17.4779 9.69281 16.1619 9.6648 14.7806ZM13.9208 19.5219V24.0579C12.4555 23.7873 11.1675 22.0233 10.3928 19.5219H13.9208ZM14.7795 24.0673V19.5219H18.3261C17.5608 22.0419 16.2541 23.8059 14.7795 24.0673ZM14.7795 18.6633V14.7806H19.0634C19.0354 16.1619 18.8581 17.4779 18.5688 18.6633H14.7795ZM19.9221 14.7806H24.0941C24.0288 16.1713 23.6835 17.4873 23.0955 18.6633H19.4648C19.7355 17.4779 19.8941 16.1619 19.9221 14.7806ZM22.6568 9.24592H19.2688C18.7555 7.42592 17.9808 5.94192 17.0381 4.98059C19.3901 5.65259 21.3875 7.19259 22.6568 9.24592ZM11.7088 4.96192C10.7568 5.93259 9.9728 7.41659 9.45947 9.23659H6.04347C7.3128 7.18326 9.32878 5.63392 11.7088 4.96192ZM6.09012 19.5219H9.47813C9.99146 21.3139 10.7568 22.7793 11.6995 23.7313C9.3568 23.0686 7.35946 21.5473 6.09012 19.5219ZM17.0288 23.7219C17.9621 22.7699 18.7368 21.3046 19.2408 19.5219H22.6008C21.3501 21.5379 19.3715 23.0593 17.0288 23.7219Z" fill="#FF5A10" stroke="#FF5A10" stroke-width="0.5"/>
</svg>
