<svg width="101" height="46" viewBox="0 0 101 46" fill="none" xmlns="http://www.w3.org/2000/svg">
<path fill-rule="evenodd" clip-rule="evenodd" d="M29.1482 18.4127C32.0924 18.4127 33.8832 18.9354 34.7843 20.0517C35.2753 20.659 35.5232 21.4668 35.5288 22.4898C35.5316 23.0582 35.4602 23.6925 35.3162 24.3983L33.298 34.2392C33.0184 35.5998 32.85 36.6414 32.8546 37.5049C32.8562 37.7787 32.8812 38.0319 32.9203 38.2717C32.1105 38.2717 28.0294 38.2717 27.3988 38.2717C27.3971 38.2113 27.3886 38.1527 27.3886 38.0905C27.3863 37.6825 27.4175 37.2517 27.4526 36.8056L27.5105 35.9984H27.2049L27.0841 36.1907C26.0934 37.7986 23.8433 38.7934 21.9153 38.7934C20.3173 38.7934 19.1724 38.3807 18.5128 37.5624C17.7847 36.6614 17.6112 35.2498 17.9957 33.3693C18.7488 29.6956 20.4035 28.141 24.5533 27.2007C24.5555 27.2007 27.3086 26.567 27.3086 26.567C28.9435 26.2024 29.7312 25.4749 30.0232 24.052C30.1825 23.2712 30.0963 22.6678 29.7657 22.2562C29.4589 21.8778 28.9668 21.6861 28.3039 21.6861C26.8283 21.6861 26.0429 22.4554 25.557 24.3703C25.0466 24.3703 21.4372 24.3703 20.6297 24.3703C21.9544 19.2044 26.5028 18.4127 29.1482 18.4127ZM29.087 28.5437C29.087 28.5437 28.9758 28.6463 28.762 28.7313C28.4133 28.8667 27.6392 28.9945 27.1606 29.1158C26.7897 29.209 26.3713 29.3169 25.9193 29.5086C24.716 30.0233 24.0956 30.8656 23.7764 32.4144C23.5904 33.3206 23.6993 34.0616 24.0951 34.5522C24.3905 34.9198 24.8277 35.1126 25.3551 35.1126C27.5071 35.1126 28.1819 33.0346 28.5023 31.4688L29.1023 28.5437H29.087Z" fill="#161413"/>
<path fill-rule="evenodd" clip-rule="evenodd" d="M48.8788 36.5348C47.7135 35.091 47.485 32.82 48.2891 28.7747C50.0435 19.9675 53.3597 18.4127 56.2451 18.4127C57.6167 18.4127 59.6827 18.9256 59.9254 21.3557L59.9638 21.7335H60.3644C60.3644 21.7335 60.833 19.4477 60.9358 18.9377C61.4793 18.9377 65.4964 18.9377 66.2995 18.9377C66.1044 19.8862 62.3161 38.2717 62.3161 38.2717C61.3702 42.8903 58.4325 45.1912 53.0433 45.1912C48.0503 45.1912 47.3097 42.2191 47.1975 41.2988C47.1549 40.9494 47.2712 39.9183 47.2712 39.9183C47.8456 39.9183 51.7605 39.9183 52.4905 39.9183C52.4905 39.9224 52.4905 39.9224 52.4905 39.9224C52.4934 40.392 52.5282 41.0848 52.6856 41.2795C52.9016 41.5485 53.081 41.8645 53.909 41.8645C55.0083 41.8645 56.0605 41.5444 56.5738 39.0396L57.4622 34.7011H57.0337L56.9152 34.9051C55.8462 36.7733 53.8556 37.7177 51.7565 37.7177C50.4638 37.7177 49.5213 37.3332 48.8788 36.5348ZM54.2046 28.3467C53.6175 31.2133 53.6431 32.3153 54.2174 33.027C54.5025 33.3822 54.9293 33.5522 55.5187 33.5522C57.1492 33.5522 57.9459 32.5527 58.774 28.5185C59.3657 25.6291 59.4272 23.7938 58.8611 23.0897C58.5829 22.748 58.1759 22.5779 57.6143 22.5779C55.9298 22.5779 55.0303 24.3125 54.2046 28.3467Z" fill="#161413"/>
<path fill-rule="evenodd" clip-rule="evenodd" d="M74.9019 18.9377C74.7108 19.8709 71.0683 37.6539 70.9399 38.2718C70.3906 38.2718 65.9519 38.2718 65.1332 38.2718C65.3254 37.3379 68.972 19.5554 69.0992 18.9377C69.6479 18.9377 74.0872 18.9377 74.9019 18.9377Z" fill="#161413"/>
<path fill-rule="evenodd" clip-rule="evenodd" d="M85.565 12.4875C85.371 13.4361 80.4103 37.643 80.2802 38.2714C79.7286 38.2714 75.2928 38.2714 74.4729 38.2714C74.6668 37.32 79.6293 13.1132 79.7594 12.4875C80.311 12.4875 84.7474 12.4875 85.565 12.4875Z" fill="#161413"/>
<path fill-rule="evenodd" clip-rule="evenodd" d="M94.8755 12.4875C94.6787 13.4361 89.7174 37.643 89.5862 38.2714C89.038 38.2714 84.5964 38.2714 83.7817 38.2714C83.978 37.32 88.9399 13.1132 89.0682 12.4875C89.6199 12.4875 94.0597 12.4875 94.8755 12.4875Z" fill="#161413"/>
<path fill-rule="evenodd" clip-rule="evenodd" d="M49.7052 18.4127C47.8022 18.4127 45.5379 19.7568 44.4321 21.9179L44.3175 22.1411H43.8922C43.8922 22.1411 44.4037 19.6487 44.5478 18.9377C44.4395 18.9377 44.2659 18.9377 44.0504 18.9377V18.9354C43.4199 18.9354 39.3381 18.9354 38.5272 18.9354C38.5663 19.1769 38.5913 19.4294 38.593 19.7053C38.5964 20.3253 38.5085 21.042 38.3554 21.9024C37.2791 27.1527 35.143 37.5624 34.9989 38.2717C35.8161 38.2717 40.2551 38.2717 40.8085 38.2717C41.1794 36.4556 42.9917 27.6029 42.9917 27.6029C43.5384 24.9398 45.0854 23.6999 47.8555 23.6999C48.3335 23.6999 48.7537 23.7268 49.1665 23.7881C49.2958 23.1601 50.1073 19.2044 50.2683 18.4127C49.9871 18.4127 49.7052 18.4127 49.7052 18.4127Z" fill="#161413"/>
<path fill-rule="evenodd" clip-rule="evenodd" d="M1.64228 37.2649C0.191752 35.4677 0.127645 32.1633 1.42168 25.8563C3.48755 15.7734 6.47542 12.3707 13.2598 12.3707C15.9703 12.3707 17.8734 13.0233 18.9129 14.3108C19.5854 15.1426 19.9257 16.2784 19.9336 17.7026C19.9381 18.4783 19.844 19.3416 19.6506 20.285C19.6506 20.285 19.4737 21.146 19.3733 21.6331C18.8227 21.6331 13.6562 21.6331 13.6562 21.6331C13.6562 21.6331 14.0798 18.8813 14.0764 18.2745C14.0724 17.5916 14.0463 17.2218 13.7877 16.8771C13.5195 16.5205 13.1208 16.2348 12.4959 16.2348C9.96911 16.2348 9.13892 18.6644 7.69972 25.6852C6.58255 31.1351 6.18282 33.6364 7.04588 34.705C7.37309 35.1083 7.86585 35.3047 8.55708 35.3047C10.5469 35.3047 11.3312 33.5824 12.331 28.7914C12.8793 28.7914 17.274 28.7914 18.09 28.7914C17.9766 29.346 17.7878 30.2628 17.7878 30.2628C16.5771 36.1711 13.1463 39.1695 7.59026 39.1695C4.58137 39.1695 2.69139 38.5622 1.64228 37.2649Z" fill="#161413"/>
<path fill-rule="evenodd" clip-rule="evenodd" d="M96.1091 12.4738H97.8517L97.7936 12.7537H97.0759L96.5602 15.2743H96.2525L96.7687 12.7537H96.0527L96.1091 12.4738Z" fill="#161413"/>
<path fill-rule="evenodd" clip-rule="evenodd" d="M99.9593 12.4738H100.5L99.925 15.2743H99.6184L100.092 12.9666C100.115 12.847 100.146 12.7314 100.164 12.6123H100.157C100.09 12.7766 100.043 12.8808 99.9941 12.989L98.9448 15.2743H98.579L98.4727 12.9552C98.4669 12.8579 98.4646 12.7646 98.4629 12.6123H98.4553C98.4309 12.7314 98.4129 12.8544 98.388 12.9747L97.9165 15.2743H97.6099L98.1836 12.4738H98.7277L98.8229 14.6589C98.8287 14.7779 98.82 14.8935 98.7968 15.0733H98.8049C98.8531 14.9313 98.8995 14.7928 98.9605 14.6548L99.9593 12.4738Z" fill="#161413"/>
<path fill-rule="evenodd" clip-rule="evenodd" d="M75.3979 16.6563C75.8543 6.03025 63.1619 -1.94751 51.3158 0.533521C39.4761 3.01285 33.7532 13.4196 32.2573 16.6345H34.1938C36.7859 12.2335 39.4103 8.81698 43.8833 7.5444C46.7249 6.73556 48.9574 6.92104 54.4529 10.0163C56.9841 11.4423 62.7124 15.7294 68.8664 16.5859C71.5399 16.9585 75.3979 16.6563 75.3979 16.6563Z" fill="#00812E"/>
</svg>
