<svg width="171" height="60" viewBox="0 0 171 60" fill="none" xmlns="http://www.w3.org/2000/svg">
<g clip-path="url(#clip0_2181_15991)">
<path d="M159.176 10H159.883C160.748 10.0128 161.615 10.0179 162.477 10.1064C162.988 10.1745 163.555 10.2 163.975 10.5387C164.54 11.0221 164.766 11.7591 165.075 12.4094C165.386 13.0281 165.654 13.6672 165.895 14.3157C165.948 14.5013 166.026 14.7626 165.838 14.8979C165.597 15.0477 165.3 15.0443 165.026 15.0647C159.376 15.1515 153.739 15.8213 148.216 17.0128C146.454 17.3906 144.723 17.8987 142.983 18.36C142.44 18.4732 141.826 18.6817 141.306 18.3923C140.862 18.0911 140.711 17.5404 140.522 17.0672C140.209 16.1745 139.926 15.2723 139.64 14.3702C139.534 14.0136 139.452 13.5898 139.68 13.2604C139.984 12.8332 140.512 12.6706 140.987 12.5132C142.84 11.9021 144.755 11.5021 146.674 11.1609C148.918 10.7753 151.177 10.4851 153.442 10.2494C154.322 10.1728 155.2 10.0451 156.086 10.0511C157.116 10.034 158.146 10.0102 159.176 10Z" fill="#222F7D"/>
<path d="M127.861 28.5157C128.592 28.3089 129.432 28.4187 130.04 28.8936C131.087 29.6944 131.117 31.4434 130.157 32.3225C129.375 33.0212 128.094 33.2119 127.22 32.571C126.206 31.8978 125.903 30.36 126.609 29.3642C126.907 28.9438 127.368 28.6553 127.861 28.5157Z" fill="#222F7D"/>
<path d="M112.341 29.8496C113.48 29.2572 114.775 29.0887 116.032 28.9279C116.287 31.7372 116.039 34.5576 115.904 37.3662C116.227 37.0453 116.397 36.5781 116.805 36.3457C117.165 36.1432 117.457 35.8334 117.849 35.6862C118.874 35.2717 120.029 35.0921 121.114 35.3696C121.929 35.5747 122.748 35.9176 123.323 36.5517C124.326 37.6317 124.755 39.1142 124.912 40.5491C125.055 42.0393 124.954 43.5662 124.529 45.0053C124.152 46.2759 123.4 47.4496 122.323 48.2359C121.72 48.6887 121.032 49.0121 120.333 49.2828C119.456 49.584 118.529 49.6972 117.609 49.7593C116.36 49.83 115.1 49.7874 113.868 49.5636C113.342 49.4615 112.815 49.3338 112.334 49.0904C112.348 42.6768 112.336 36.2632 112.341 29.8496ZM116.38 40.4402C116.146 41.453 116.05 42.4921 115.979 43.527C115.924 44.5908 115.877 45.6666 116.032 46.7245C116.939 46.9338 117.909 47.0385 118.813 46.7542C119.464 46.5576 120.035 46.1287 120.421 45.5696C121.097 44.5806 121.28 43.3415 121.261 42.1662C121.231 41.2308 121.101 40.2776 120.719 39.4164C120.394 38.693 119.609 38.2079 118.813 38.287C117.64 38.3755 116.714 39.3628 116.38 40.4402Z" fill="#222F7D"/>
<path d="M68.5615 29.8488C69.6773 29.3577 70.8951 28.979 72.1266 29.0607C72.1658 35.8726 72.2117 42.6837 72.256 49.4947C71.0237 49.4956 69.7922 49.4956 68.5615 49.4947C68.5607 42.9458 68.5598 36.3977 68.5615 29.8488Z" fill="#222F7D"/>
<path d="M0 30.5072C2.66553 30.4009 5.35745 30.1345 8.00936 30.5575C9.3583 30.7898 10.806 31.2366 11.6647 32.377C12.6179 33.6255 12.7694 35.3821 12.1847 36.8213C11.7472 37.9396 10.8434 38.8383 9.7617 39.3421C10.4587 39.6834 11.1549 40.0494 11.7489 40.554C12.48 41.3617 12.8494 42.4545 12.8894 43.5345C12.9379 44.9532 12.4545 46.4 11.5081 47.4664C10.7447 48.2953 9.70213 48.8196 8.62809 49.1192C7.09447 49.5362 5.49192 49.5796 3.91319 49.5668C2.60851 49.5481 1.30468 49.5021 0 49.4936V30.5072H0ZM3.69192 33.537C3.64766 35.1183 3.60511 36.7004 3.56085 38.2817C4.46979 38.4289 5.40851 38.4587 6.31404 38.2715C6.98043 38.1319 7.64511 37.8545 8.11745 37.3498C8.73957 36.6774 8.85787 35.6392 8.53532 34.8017C8.29787 34.1975 7.73106 33.7872 7.12511 33.6017C6.01447 33.2545 4.82383 33.3532 3.69192 33.537ZM3.55404 41.1966C3.56511 42.9489 3.55745 44.7021 3.5583 46.4553C4.62638 46.6221 5.73532 46.6664 6.79149 46.4017C7.41532 46.2392 8.03404 45.9413 8.4434 45.4281C8.94043 44.8077 9.05277 43.9557 8.93958 43.1889C8.80681 42.3813 8.14809 41.7634 7.40766 41.48C6.19064 40.9983 4.83149 40.9906 3.55404 41.1966Z" fill="#222F7D"/>
<path d="M14.6424 35.3866C16.9045 34.6394 19.3283 34.2436 21.7037 34.5926C22.7292 34.7458 23.7769 35.1109 24.5028 35.8845C25.4211 36.8547 25.6747 38.2462 25.7071 39.5373C25.7632 42.8556 25.799 46.1756 25.8475 49.4947C24.6611 49.4956 23.4739 49.4956 22.2875 49.4947C22.3283 48.7492 22.3752 48.0045 22.416 47.2598C22.1471 47.6547 21.9139 48.0845 21.5539 48.407C20.4943 49.3024 19.1207 49.9202 17.7079 49.7722C16.6092 49.7449 15.4807 49.3739 14.7139 48.5585C13.8322 47.6522 13.5122 46.2845 13.7947 45.0641C14.1003 43.6487 15.1224 42.4751 16.3564 41.7619C18.0543 40.7585 20.0781 40.4981 22.0194 40.5322C22.0066 39.7951 22.0339 38.99 21.6092 38.35C21.279 37.859 20.6858 37.6394 20.1232 37.5568C18.9471 37.3926 17.7428 37.573 16.6305 37.9722C16.0535 38.1594 15.5088 38.4556 14.9062 38.556C14.8194 37.4998 14.7275 36.4436 14.6424 35.3866ZM19.1539 43.3985C18.559 43.6019 17.9411 43.8862 17.5845 44.4309C17.2296 44.927 17.1343 45.6292 17.4577 46.1662C17.7062 46.6573 18.2918 46.8581 18.8118 46.8624C19.5241 46.859 20.2177 46.5909 20.8083 46.2053C21.6603 45.3968 22.0152 44.1875 22.0211 43.0377C21.0569 43.0419 20.0781 43.1075 19.1539 43.3985Z" fill="#222F7D"/>
<path d="M35.3172 34.5988C36.347 34.4133 37.4644 34.4805 38.3887 35.0073C39.2083 35.4635 39.8151 36.2763 40.0287 37.1886C40.1615 37.7605 40.2278 38.3452 40.2823 38.929C40.553 42.4448 40.3768 45.9733 40.3444 49.4942C39.1147 49.495 37.8857 49.495 36.6559 49.4942C36.6551 47.1095 36.6551 44.7256 36.6559 42.341C36.6559 41.3188 36.7632 40.2865 36.5887 39.272C36.4942 38.7563 36.3078 38.2031 35.8568 37.8933C35.3964 37.5776 34.7981 37.609 34.2781 37.7299C33.501 37.9095 32.861 38.4763 32.4806 39.1631C31.9436 40.1205 31.7487 41.2227 31.6389 42.3018C31.4023 44.695 31.6372 47.0976 31.6449 49.4942C30.37 49.495 29.0951 49.495 27.8202 49.4942C27.8193 44.8363 27.8193 40.1776 27.8193 35.5197C28.924 35.1401 30.0721 34.8439 31.2483 34.8601C31.2525 35.6524 31.2423 36.4448 31.2534 37.2371C31.6942 36.7997 32.0142 36.2558 32.4798 35.8414C33.2483 35.1129 34.2832 34.7393 35.3172 34.5988Z" fill="#222F7D"/>
<path d="M59.3684 34.5804C60.7386 34.4417 62.1607 34.5991 63.428 35.1583C64.8143 35.777 65.9854 36.9345 66.4986 38.3762C67.1343 40.1268 67.1497 42.0587 66.7624 43.8655C66.4424 45.3949 65.7369 46.8774 64.5871 47.9574C63.5114 48.983 62.0705 49.5736 60.6016 49.7319C59.0671 49.8928 57.4424 49.7472 56.0697 48.9932C54.9301 48.3787 54.0501 47.3396 53.5616 46.1472C52.8807 44.5064 52.8492 42.6689 53.1309 40.937C53.3292 39.4417 53.9275 37.983 54.9343 36.8485C56.0526 35.5625 57.6782 34.7574 59.3684 34.5804ZM59.5377 37.8076C58.7828 37.9728 58.1267 38.4647 57.6918 39.0953C56.8935 40.2587 56.7701 41.7464 56.9386 43.1115C57.0228 44.0808 57.2884 45.0902 57.9718 45.8162C58.5394 46.4408 59.4237 46.7328 60.2552 46.6076C61.2611 46.5098 62.0977 45.7753 62.565 44.9132C63.1854 43.7574 63.2901 42.3957 63.1607 41.1115C63.0424 40.0876 62.6458 39.0391 61.8314 38.3693C61.2058 37.8434 60.336 37.6221 59.5377 37.8076Z" fill="#222F7D"/>
<path d="M94.8597 35.1565C95.869 34.5045 97.1277 34.3777 98.2997 34.502C99.0954 34.5862 99.8707 34.9505 100.383 35.576C100.707 35.9531 100.952 36.3896 101.176 36.8331C101.251 37.0016 101.442 37.0637 101.579 37.1743C102.121 36.3862 102.749 35.6092 103.606 35.1479C104.352 34.7411 105.205 34.6143 106.038 34.525C106.908 34.4475 107.819 34.5879 108.579 35.0356C109.37 35.496 109.96 36.2901 110.162 37.1837C110.369 38.0909 110.436 39.0228 110.492 39.9488C110.655 43.1284 110.516 46.3122 110.487 49.4926C109.218 49.6254 107.934 49.6254 106.665 49.4943C106.781 47.1403 106.82 44.7828 106.813 42.4262C106.8 41.3726 106.792 40.3173 106.703 39.2671C106.672 38.7548 106.452 38.222 106.007 37.9386C105.485 37.605 104.812 37.6467 104.249 37.8399C103.789 38.0067 103.328 38.2518 103.043 38.662C102.459 39.4407 102.065 40.3582 101.885 41.3139C101.757 41.9616 101.791 42.6245 101.787 43.2807C101.786 45.3522 101.788 47.4228 101.786 49.4943C100.557 49.4952 99.3277 49.4952 98.0979 49.4943C98.0979 47.1377 98.097 44.7803 98.0987 42.4237C98.0996 41.3216 98.2196 40.205 97.9974 39.1156C97.8911 38.6126 97.6715 38.0756 97.1974 37.8169C96.6715 37.542 96.0289 37.6339 95.4987 37.8484C94.4545 38.3113 93.8145 39.3633 93.4987 40.4203C93.1838 41.399 93.2272 42.4365 93.1677 43.4501C93.0987 45.4637 93.1115 47.4807 93.2179 49.4935C91.9464 49.6118 90.6672 49.5045 89.394 49.4858C89.4009 44.8739 89.394 40.2611 89.3974 35.6492C90.5336 35.2194 91.72 34.8586 92.9464 34.8569C92.9021 35.6492 92.8587 36.4424 92.8153 37.2356C93.4571 36.5071 94.0273 35.685 94.8597 35.1565Z" fill="#222F7D"/>
<path d="M132.651 35.3906C134.632 34.874 136.656 34.3744 138.72 34.4893C139.559 34.5625 140.401 34.7038 141.186 35.0195C141.833 35.2808 142.438 35.6859 142.858 36.2527C143.311 36.8553 143.54 37.5957 143.645 38.3344C143.818 39.5795 143.744 40.8391 143.735 42.091C143.702 42.9982 143.795 43.9029 143.809 44.8093C143.853 46.3727 143.858 47.9361 143.855 49.5004C142.668 49.5012 141.483 49.5012 140.296 49.5004C140.335 48.7616 140.389 48.0238 140.418 47.285C140.254 47.7744 139.883 48.1557 139.492 48.4748C138.036 49.6348 136.013 50.0723 134.216 49.5667C132.747 49.1514 131.672 47.6918 131.692 46.1701C131.663 44.7948 132.251 43.4306 133.254 42.4918C133.84 41.9199 134.589 41.5557 135.341 41.2527C136.833 40.668 138.46 40.7055 140.03 40.5293C140.007 39.7999 140.031 39.011 139.635 38.3659C139.28 37.8016 138.586 37.6093 137.963 37.5353C136.96 37.4084 135.934 37.5208 134.976 37.8416C134.279 38.0493 133.628 38.3931 132.917 38.5531C132.826 37.4987 132.737 36.445 132.651 35.3906ZM136.322 43.7667C135.837 44.011 135.382 44.4161 135.263 44.9667C135.129 45.537 135.407 46.137 135.852 46.4944C136.355 46.9148 137.072 47.0399 137.696 46.8518C138.523 46.6178 139.171 45.9701 139.579 45.2331C139.942 44.5625 140.021 43.7855 140.031 43.0348C138.764 42.9327 137.426 43.1021 136.322 43.7667Z" fill="#222F7D"/>
<path d="M79.7038 34.6578C80.6467 34.502 81.6101 34.5471 82.5531 34.6773C83.8323 34.8663 85.0825 35.4101 86.0008 36.3369C87.0008 37.3275 87.5633 38.6867 87.7744 40.0637C87.9438 41.1803 87.9276 42.3241 87.7565 43.4399C87.4876 45.0927 86.7642 46.7088 85.5301 47.8654C83.6399 49.6654 80.7795 50.2101 78.2918 49.5624C77.0127 49.2271 75.7488 48.5616 74.988 47.4467C74.1778 46.1837 73.8459 44.6697 73.7718 43.1863C73.702 41.2995 74.0008 39.3275 75.0408 37.7148C76.0561 36.0816 77.8033 34.9429 79.7038 34.6578ZM80.2969 37.8867C79.4723 38.0382 78.7165 38.5327 78.2799 39.2518C77.6033 40.3386 77.5361 41.679 77.674 42.9199C77.7676 44.0399 78.0808 45.2561 78.9812 46.0041C79.754 46.651 80.8697 46.6544 81.7829 46.3395C82.6093 46.0373 83.1948 45.3029 83.5404 44.5182C84.0833 43.2595 84.1889 41.8246 83.8953 40.4892C83.685 39.5769 83.2382 38.6475 82.4169 38.1403C81.7931 37.7369 80.9999 37.7054 80.2969 37.8867Z" fill="#222F7D"/>
<path d="M46.21 35.0329C48.1037 34.3708 50.1522 34.6491 52.0815 34.9869C51.9522 36.0856 51.8194 37.1835 51.6866 38.2822C50.6271 38.1427 49.616 37.552 48.5232 37.7673C47.5505 37.9767 46.6586 38.6261 46.2279 39.5333C45.5786 40.8652 45.496 42.432 45.8322 43.8618C46.0552 44.7325 46.479 45.6439 47.2934 46.1035C48.1658 46.5231 49.1845 46.5376 50.1215 46.3665C50.6875 46.2712 51.2254 45.9503 51.8117 46.0303C51.9147 47.0516 52.0015 48.0746 52.0815 49.0984C50.416 49.5197 48.7054 49.9759 46.9717 49.7835C45.673 49.6337 44.3581 49.135 43.462 48.152C42.376 46.9776 41.8509 45.3878 41.6883 43.821C41.4866 41.7282 41.8756 39.5435 42.9615 37.7282C43.6952 36.4942 44.8458 35.501 46.21 35.0329Z" fill="#222F7D"/>
<path d="M126.448 34.8579C127.764 34.7379 129.087 34.7192 130.408 34.7268C130.408 39.6494 130.408 44.5719 130.408 49.4945C129.088 49.4953 127.768 49.4953 126.448 49.4945C126.448 44.6153 126.448 39.737 126.448 34.8579Z" fill="#222F7D"/>
<path d="M161.843 16.6272C163.241 16.5429 164.642 16.5046 166.042 16.5523C166.589 16.5948 167.208 16.6093 167.641 16.9965C168.073 17.4323 168.185 18.0646 168.404 18.6169C168.711 19.5795 169.176 20.4808 169.52 21.4297C169.626 21.7403 169.707 22.1582 169.409 22.3906C168.948 22.7208 168.362 22.7761 167.823 22.8927C165.924 23.2178 164.02 23.5046 162.129 23.8689C158.416 24.588 154.733 25.4561 151.061 26.3582C147.317 27.308 143.589 28.3471 139.968 29.702C139.253 29.9633 138.543 30.274 137.78 30.3676C137.402 30.4144 136.974 30.3565 136.704 30.0629C136.363 29.6952 136.232 29.1931 136.098 28.7233C135.791 27.5191 135.44 26.3242 135.176 25.1089C135.071 24.5531 134.947 23.971 135.093 23.4101C135.209 22.9582 135.574 22.6237 135.97 22.405C136.78 21.9582 137.671 21.6893 138.541 21.3837C140.306 20.7582 142.126 20.3012 143.894 19.685C147.661 18.7029 151.478 17.914 155.328 17.3318C157.488 17.0118 159.661 16.7591 161.843 16.6272Z" fill="#FFC902"/>
<path d="M166.086 24.3503C166.61 24.2737 167.176 24.1503 167.684 24.3648C168.17 24.5963 168.389 25.1265 168.594 25.5903C169.04 26.7291 169.391 27.9027 169.786 29.0601C169.941 29.5827 170.15 30.118 170.088 30.672C169.987 31.238 169.394 31.4789 168.93 31.6916C167.565 32.2346 166.178 32.7197 164.812 33.261C161.147 34.6763 157.482 36.0908 153.817 37.5061C153.023 37.8091 152.233 38.1512 151.39 38.2831C150.924 38.3512 150.405 38.3282 150.019 38.0304C149.593 37.7018 149.392 37.1818 149.21 36.695C148.891 35.7793 148.662 34.8346 148.328 33.924C147.854 32.8806 147.468 31.7989 147.09 30.7172C146.924 30.2499 146.887 29.6891 147.175 29.2618C147.451 28.8567 147.924 28.655 148.378 28.5172C150.82 27.9095 153.247 27.2414 155.694 26.6482C157.801 26.1376 159.902 25.5954 162.033 25.1844C163.384 24.9095 164.73 24.6031 166.086 24.3503Z" fill="#EA241D"/>
</g>
<defs>
<clipPath id="clip0_2181_15991">
<rect width="170.213" height="40" fill="white" transform="translate(0 10)"/>
</clipPath>
</defs>
</svg>
