<svg width="28" height="28" viewBox="0 0 28 28" fill="none" xmlns="http://www.w3.org/2000/svg">
<mask id="path-1-inside-1_1603_22905" fill="white">
<path d="M18.0752 11.9561C18.0752 8.57551 15.3347 5.83497 11.954 5.83497C8.57339 5.83497 5.83284 8.57551 5.83284 11.9561C5.83284 15.3368 8.57339 18.0773 11.954 18.0773C15.3347 18.0773 18.0752 15.3368 18.0752 11.9561ZM17.0513 18.7019C15.6341 19.7744 13.8683 20.4107 11.954 20.4107C7.28472 20.4107 3.49951 16.6254 3.49951 11.9561C3.49951 7.28685 7.28472 3.50164 11.954 3.50164C16.6233 3.50164 20.4085 7.28685 20.4085 11.9561C20.4085 13.8697 19.7728 15.6348 18.701 17.0518L24.1582 22.5083C24.6139 22.9639 24.6139 23.7026 24.1583 24.1582C23.7028 24.6139 22.9641 24.6139 22.5084 24.1583L17.0513 18.7019Z"/>
</mask>
<path d="M17.0513 18.7019L18.1118 17.6411L17.1879 16.7173L16.1461 17.5058L17.0513 18.7019ZM18.701 17.0518L17.5047 16.1468L16.7165 17.1888L17.6404 18.1125L18.701 17.0518ZM24.1582 22.5083L25.2188 21.4476L24.1582 22.5083ZM24.1583 24.1582L23.0976 23.0976L23.0976 23.0976L24.1583 24.1582ZM22.5084 24.1583L23.569 23.0976L23.569 23.0976L22.5084 24.1583ZM11.954 19.5773C16.1631 19.5773 19.5752 16.1652 19.5752 11.9561H16.5752C16.5752 14.5083 14.5062 16.5773 11.954 16.5773V19.5773ZM4.33284 11.9561C4.33284 16.1652 7.74496 19.5773 11.954 19.5773V16.5773C9.40181 16.5773 7.33284 14.5083 7.33284 11.9561H4.33284ZM11.954 4.33497C7.74496 4.33497 4.33284 7.74709 4.33284 11.9561H7.33284C7.33284 9.40394 9.40181 7.33497 11.954 7.33497V4.33497ZM19.5752 11.9561C19.5752 7.74709 16.1631 4.33497 11.954 4.33497V7.33497C14.5062 7.33497 16.5752 9.40394 16.5752 11.9561H19.5752ZM11.954 21.9107C14.2063 21.9107 16.2877 21.1609 17.9565 19.898L16.1461 17.5058C14.9804 18.388 13.5304 18.9107 11.954 18.9107V21.9107ZM1.99951 11.9561C1.99951 17.4539 6.4563 21.9107 11.954 21.9107V18.9107C8.11315 18.9107 4.99951 15.797 4.99951 11.9561H1.99951ZM11.954 2.00164C6.4563 2.00164 1.99951 6.45842 1.99951 11.9561H4.99951C4.99951 8.11528 8.11315 5.00164 11.954 5.00164V2.00164ZM21.9085 11.9561C21.9085 6.45842 17.4517 2.00164 11.954 2.00164V5.00164C15.7949 5.00164 18.9085 8.11528 18.9085 11.9561H21.9085ZM19.8973 17.9567C21.1593 16.2883 21.9085 14.2075 21.9085 11.9561H18.9085C18.9085 13.5319 18.3862 14.9814 17.5047 16.1468L19.8973 17.9567ZM17.6404 18.1125L23.0976 23.569L25.2188 21.4476L19.7616 15.991L17.6404 18.1125ZM23.0976 23.569C22.9675 23.4389 22.9674 23.2278 23.0976 23.0976L25.2191 25.2188C26.2604 24.1774 26.2603 22.4889 25.2188 21.4476L23.0976 23.569ZM23.0976 23.0976C23.2278 22.9675 23.4388 22.9674 23.569 23.0976L21.4478 25.2191C22.4893 26.2604 24.1777 26.2603 25.2191 25.2188L23.0976 23.0976ZM23.569 23.0976L18.1118 17.6411L15.9907 19.7626L21.4478 25.2191L23.569 23.0976Z" fill="#F56D00" mask="url(#path-1-inside-1_1603_22905)"/>
</svg>
