<svg width="133" height="27" viewBox="0 0 133 27" fill="none" xmlns="http://www.w3.org/2000/svg">
<g clip-path="url(#clip0_702_24698)">
<path d="M109.732 23.1482C110.872 23.1106 111.96 22.5232 112.786 21.4999L113.991 20.0006C114.244 19.6905 114.542 19.4495 114.868 19.2918C115.194 19.1341 115.541 19.0629 115.888 19.0823C116.71 19.0979 117.521 19.3302 118.273 19.7652L123.489 22.4339C123.489 22.4339 124.753 23.1482 125.813 23.1482H126.584C126.695 23.1462 126.801 23.0874 126.879 22.9846C126.956 22.8817 127 22.7432 127 22.5988V20.2283C126.991 19.3861 126.786 18.5674 126.413 17.8796C126.04 17.1918 125.516 16.667 124.91 16.3742L123.784 15.7934C122.864 15.3508 122.01 14.7027 121.26 13.8781C121.26 13.8781 120.212 12.3396 121.429 10.8404L126.066 5.11036C126.65 4.36754 126.985 3.35517 127 2.29244C127 2.29244 127 1.85287 126.904 1.44471C126.83 1.16506 126.706 0.912233 126.542 0.706864C126.208 0.319965 125.773 0.114883 125.326 0.13386H124.597C123.459 0.164993 122.37 0.746984 121.543 1.76653L117.689 6.5311L113.449 11.798V3.51694C113.428 2.5939 113.127 1.71917 112.612 1.08486C112.097 0.450555 111.41 0.108516 110.702 0.13386H109.516C109.19 0.108365 108.864 0.156163 108.552 0.275148C108.371 0.400738 108.371 0.62837 108.371 0.848153V22.6537C108.371 22.9284 108.552 23.1482 108.775 23.1482H109.732ZM87.5621 20.3382C87.5621 20.3382 86.5744 20.0006 84.635 18.1089L82.5692 16.0916C82.9305 15.8091 84.111 15.2282 85.1771 13.7211C85.8396 12.7871 86.201 11.6096 86.201 10.1418C86.1954 8.74074 85.8543 7.3769 85.2253 6.24067C84.5512 4.9848 83.7011 3.90621 82.7197 3.06168C81.6524 2.13449 80.488 1.41277 79.2626 0.918797C78.0464 0.405987 76.7766 0.141216 75.4983 0.13386H67.9697C67.9175 0.131766 67.8655 0.143103 67.8166 0.167222C67.7678 0.191341 67.7231 0.227768 67.685 0.274423C67.647 0.321077 67.6164 0.377044 67.595 0.439123C67.5735 0.501202 67.5617 0.568177 67.5601 0.63622V22.4025C67.5601 22.6223 67.5601 22.8578 67.7348 22.9834C67.9757 23.1325 68.4937 23.1482 68.7888 23.1482C69.2104 23.1482 69.6742 23.0933 70.0897 22.9363C70.7236 22.6608 71.2795 22.1441 71.6858 21.4528C72.4025 20.2989 72.5772 18.9881 72.5772 17.5673V8.14807C72.5769 7.93628 72.5971 7.72529 72.6374 7.52012C72.6916 7.30819 72.7759 7.11196 72.7759 7.11196C73.3541 5.80896 75.3116 5.3066 77.4256 5.9581C80.2383 6.83723 81.0695 9.23129 80.7743 10.2596C80.4551 11.3742 79.4373 12.0728 78.1664 12.0728C77.5641 12.0728 76.9378 11.9393 76.2993 11.6881C76.0519 11.6054 75.8068 11.5111 75.5645 11.4056C75.414 11.3506 75.1189 11.1779 74.902 11.1779C74.6912 11.1779 74.5828 11.3899 74.5828 11.8059V14.2706C74.5828 15.1183 74.8599 15.8719 75.2694 16.3271L81.4308 22.3162C82.0271 22.85 82.6716 23.1482 83.3642 23.1482L87.4236 23.1561C87.7127 23.1561 87.8512 22.9206 87.8512 22.5046V20.9033C87.8463 20.784 87.8169 20.6686 87.766 20.5692C87.7151 20.4698 87.6447 20.39 87.5621 20.3382ZM62.9285 17.1749H57.52C56.7799 17.1577 56.0495 16.9524 55.3698 16.5705C54.7283 16.1501 54.141 15.6019 53.6292 14.9456C52.6277 13.5789 52.0653 11.7647 52.0572 9.87494C52.0572 8.67398 52.3343 7.73991 52.8884 7.07271C53.272 6.62317 53.7427 6.31913 54.2495 6.19358C54.9437 5.99209 55.6634 5.99209 56.3576 6.19358C56.9659 6.35057 57.5621 6.64099 58.1524 7.09626C58.9956 7.7556 59.887 8.76032 60.4893 9.7258H54.8579C54.5206 9.7258 54.3519 9.90633 54.3519 10.2753C54.3519 10.9817 54.4423 11.4527 54.6712 12.0335C55.0249 12.8435 55.539 13.5149 56.1599 13.9775C56.7807 14.44 57.4855 14.6768 58.2006 14.6631H63.4405C64.356 14.6631 64.9884 14.3648 65.3377 13.7604C65.6641 13.2132 65.8249 12.5288 65.7894 11.8373C65.7894 10.5107 65.5063 9.21559 64.9402 7.8184C64.3498 6.38401 63.5711 5.09554 62.6394 4.01145C61.6456 2.84389 60.5099 1.89958 59.2787 1.21707C58.0113 0.498432 56.6435 0.129617 55.2614 0.13386H47.5581C47.4537 0.131736 47.3529 0.18324 47.2773 0.277241C47.2018 0.371243 47.1577 0.500192 47.1546 0.63622V10.1026C47.1546 11.8687 47.4316 13.5484 47.9857 15.1262C48.5399 16.696 49.2927 18.0854 50.2443 19.2706C52.2434 21.7483 54.8938 23.1356 57.6525 23.1482H65.3859C65.6087 23.1482 65.7894 22.9284 65.7894 22.6537V20.7385C65.81 20.2579 65.7531 19.777 65.6224 19.3268C65.4917 18.8766 65.2901 18.4671 65.0305 18.1246C64.4531 17.4604 63.6972 17.1138 62.9285 17.1749ZM45.9681 3.51694C45.9579 3.05921 45.8787 2.60856 45.7349 2.19077C45.591 1.77297 45.3854 1.39621 45.1298 1.08202C44.8742 0.767838 44.5736 0.522384 44.2451 0.359693C43.9167 0.197001 43.5668 0.120261 43.2156 0.13386H40.3066C40.1687 0.135989 40.0361 0.202884 39.9331 0.322245L34.109 7.07271C31.9923 9.45767 29.2757 10.7431 26.478 10.6834C23.4003 10.6834 20.6117 9.26268 18.5941 6.77443L14.2877 1.76653C13.3856 0.738638 12.2334 0.160234 11.0353 0.13386H7.54206C7.40193 0.131704 7.26673 0.201152 7.16541 0.327328C7.06409 0.453504 7.00471 0.626373 7 0.808906V19.7652C7 21.6333 8.22867 23.1482 9.74644 23.1482H11.5172C11.6589 23.1525 11.7963 23.0842 11.8999 22.9581C12.0035 22.8319 12.065 22.6578 12.0713 22.4732V15.7227C12.0713 13.9645 13.2337 12.5045 14.643 12.5045C17.257 12.5045 19.1361 15.2753 20.8285 17.1199C22.9064 19.3805 24.5025 21.5627 26.478 21.5627C28.4415 21.5627 30.0436 19.3805 32.1215 17.1199C33.8139 15.2753 35.693 12.5123 38.307 12.5123C39.7043 12.5123 40.8667 13.9488 40.8787 15.6992V19.7573C40.8787 21.6255 42.1074 23.1325 43.6252 23.1325H44.8117L45.408 23.1404C45.5487 23.1426 45.6845 23.0734 45.7868 22.9474C45.8891 22.8215 45.9498 22.6486 45.956 22.4653V3.50909M106.197 13.517H103.378C102.342 13.517 101.662 14.0744 101.355 15.1811C101.176 15.8713 100.84 16.4739 100.391 16.908C99.8894 17.3665 99.2865 17.5981 98.6744 17.5673C97.9771 17.5503 97.2941 17.3076 96.6868 16.8609C95.3133 15.9172 94.2089 14.4229 93.5368 12.5987C93.2124 11.7551 93.0394 10.8264 93.0309 9.88278C93.0151 9.37234 93.0808 8.86318 93.2239 8.38757C93.367 7.91196 93.5843 7.48025 93.8621 7.1198C94.1398 6.77044 94.4683 6.49677 94.8282 6.31482C95.188 6.13287 95.5722 6.04628 95.958 6.06014C96.9217 6.06014 97.8793 6.4997 98.8189 7.37099C99.1746 7.71446 99.6049 7.90141 100.048 7.90474C100.481 7.90474 100.939 7.60647 101.421 7.00991L103.342 4.6708C103.463 4.52166 103.505 4.38822 103.463 4.27048C103.409 4.11492 103.331 3.97583 103.234 3.86231C102.221 2.71232 101.072 1.78446 99.8308 1.11503C98.6018 0.459982 97.2858 0.126589 95.958 0.13386H88.3993C88.1102 0.13386 87.9657 0.345793 87.9657 0.76181V10.0633C87.9657 11.8608 88.2608 13.5641 88.851 15.1811C89.433 16.7872 90.2422 18.2359 91.2361 19.4512C92.2359 20.6757 93.3863 21.6569 94.6752 22.3947C95.9641 23.1247 97.3011 23.4936 98.6744 23.4936C99.7826 23.4936 100.812 23.2581 101.746 22.7872C102.692 22.3319 103.511 21.6882 104.215 20.8641C104.908 20.0399 105.462 19.0587 105.878 17.897C106.287 16.751 106.522 15.4951 106.6 14.1528C106.625 13.729 106.486 13.5249 106.203 13.5249" fill="#0F69AF"/>
</g>
<defs>
<clipPath id="clip0_702_24698">
<rect width="133" height="26" fill="white" transform="translate(0 0.134521)"/>
</clipPath>
</defs>
</svg>
