<svg width="120" height="42" viewBox="0 0 120 42" fill="none" xmlns="http://www.w3.org/2000/svg">
<g clip-path="url(#clip0_738_8219)">
<mask id="mask0_738_8219" style="mask-type:luminance" maskUnits="userSpaceOnUse" x="-1066" y="-59" width="1242" height="1755">
<path d="M-1065.02 -58.3088H175.15V1695.63H-1065.02V-58.3088Z" fill="white"/>
</mask>
<g mask="url(#mask0_738_8219)">
<path d="M45.3428 10.6207C45.3428 14.6957 48.3594 17.7019 53.4032 17.7019C55.5303 17.7019 57.5324 17.3686 59.6094 16.3998L61.499 18.9727C58.8844 20.3498 56.3761 21.0769 52.5199 21.0769C44.474 21.0769 38.5615 17.2019 38.5615 10.6227C38.5615 4.04565 44.474 0.172738 52.5199 0.172738C56.3761 0.172738 58.5969 0.733156 61.3094 1.89774L59.3761 4.85816C57.3178 3.76649 55.5303 3.54149 53.4032 3.54149C48.3594 3.54149 45.3428 6.54565 45.3428 10.6207Z" fill="#DA1745"/>
<path d="M76.036 17.8238C71.7527 17.8238 69.3881 14.6051 69.3881 10.6197C69.3881 6.63426 71.7527 3.41343 76.036 3.41343C80.3193 3.41343 82.6881 6.63426 82.6881 10.6197C82.6881 14.6051 80.3193 17.8238 76.036 17.8238ZM76.036 0.163428C68.2485 0.163428 62.6318 4.04259 62.6318 10.6197C62.6318 17.2009 68.2485 21.0759 76.036 21.0759C83.8256 21.0759 89.4443 17.2009 89.4443 10.6197C89.4443 4.04259 83.8256 0.163428 76.036 0.163428Z" fill="#DA1745"/>
<path d="M109.69 12.1344V20.5469H116.127V0.690623H109.69V8.26562H99.8521V0.690623H93.4292V20.5469H99.8521V12.1344H109.69Z" fill="#DA1745"/>
<path d="M34.6809 0.691102H27.9038V20.5474H34.6809V0.691102Z" fill="#DA1745"/>
<path d="M8.46309 9.78045V11.6805C11.6485 14.143 14.8943 17.4242 17.2798 20.5471H24.8693C22.2277 17.4471 18.1777 13.7617 15.1943 11.9075C18.6964 11.7638 22.5985 10.345 22.5985 6.3242C22.5985 1.17212 17.0881 0.224201 11.5173 0.224201C6.96517 0.224201 2.7735 0.434617 0.256836 0.640867V20.5471H6.586V3.6367C7.75267 3.51378 9.01309 3.37212 11.5443 3.37212C14.8027 3.37212 16.4548 4.44712 16.4548 6.3242C16.4548 7.93045 15.7714 9.85128 8.46309 9.78045Z" fill="#DA1745"/>
<path d="M0.766113 29.7409H2.38494V37.8367H0.766113V29.7409ZM0.766113 26.5033H2.38494V28.0742H0.766113V26.5033Z" fill="#656263"/>
<path d="M14.5046 37.8364V32.6406C14.5046 31.6531 14.1984 30.8448 13.063 30.8448C11.7359 30.8448 11.2671 32.1781 11.2671 33.4239V37.8364H9.64837V32.6406C9.64837 31.6531 9.34004 30.8448 8.20671 30.8448C6.87754 30.8448 6.39212 32.1781 6.39212 33.4239V37.8364H4.77337V31.6031C4.77337 30.9885 4.75879 30.3573 4.69629 29.7406H6.21504L6.26504 31.1343C6.79837 30.0989 7.64212 29.5802 8.74004 29.5802C10.0192 29.5802 10.8609 30.3406 11.1046 31.2323C11.4921 30.2281 12.5442 29.5802 13.5838 29.5802C15.3442 29.5802 16.14 30.7781 16.14 32.4468V37.8364H14.5046Z" fill="#656263"/>
<path d="M85.991 36.8151C87.1785 36.5318 87.5285 35.3338 87.4785 33.8693C87.4785 33.8693 83.8035 33.5734 83.9014 35.6109C83.9597 36.8068 85.1118 37.0255 85.991 36.8151ZM87.5764 37.8359L87.5264 36.5568C86.3681 38.7193 82.2993 38.4901 82.2993 35.6984C82.2993 33.5963 84.3139 32.7318 87.4785 32.8818C87.4806 32.8713 87.6535 31.3588 86.6097 30.8943C85.9306 30.5901 84.4785 30.6359 83.2535 31.3588L83.1556 30.1151C85.0368 29.338 89.0681 28.8484 89.0681 32.5984V36.038C89.0681 36.7359 89.0972 37.2838 89.1618 37.8359H87.5764Z" fill="#656263"/>
<path d="M21.4514 36.8151C22.6389 36.5318 22.9889 35.3338 22.9389 33.8693C22.9389 33.8693 19.2639 33.5734 19.3618 35.6109C19.4181 36.8068 20.5702 37.0255 21.4514 36.8151ZM23.0368 37.8359L22.9868 36.5568C21.8285 38.7193 17.7598 38.4901 17.7598 35.6984C17.7598 33.5963 19.7723 32.7318 22.9389 32.8818C22.9389 32.8713 23.1118 31.3588 22.0681 30.8943C21.3889 30.5901 19.9389 30.6359 18.7139 31.3588L18.616 30.1151C20.4973 29.338 24.5264 28.8484 24.5264 32.5984V36.038C24.5264 36.7359 24.5577 37.2838 24.6223 37.8359H23.0368Z" fill="#656263"/>
<path d="M103.621 30.8263C101.954 30.8263 101.581 32.4117 101.581 33.7721C101.581 35.0346 101.971 36.5888 103.604 36.5888C105.175 36.5888 105.677 35.0013 105.677 33.7721C105.677 32.4763 105.19 30.8263 103.621 30.8263ZM100.481 41.0721L100.579 39.695C101.29 40.07 102.148 40.2908 102.99 40.2783C105.79 40.2346 105.627 37.9117 105.627 36.4263C105.627 36.4263 104.819 37.8283 103.119 37.8367C100.756 37.8429 99.8335 35.7783 99.8335 33.7575C99.8335 31.6033 100.756 29.5783 103.152 29.5783C104.269 29.5783 105.175 30.0658 105.694 31.0867V29.7408H107.248V37.3804C107.248 41.8908 103.238 41.9242 100.481 41.0721Z" fill="#656263"/>
<path d="M30.0308 30.8263C28.362 30.8263 27.9912 32.4117 27.9912 33.7721C27.9912 35.0346 28.3787 36.5888 30.0141 36.5888C31.585 36.5888 32.085 35.0013 32.085 33.7721C32.085 32.4763 31.5995 30.8263 30.0308 30.8263ZM26.8891 41.0721L26.987 39.695C27.6995 40.07 28.5558 40.2908 29.3975 40.2783C32.1995 40.2346 32.037 37.9117 32.037 36.4263C32.037 36.4263 31.2287 37.8283 29.5287 37.8367C27.1662 37.8429 26.2412 35.7783 26.2412 33.7575C26.2412 31.6033 27.1662 29.5783 29.56 29.5783C30.6787 29.5783 31.585 30.0658 32.1037 31.0867V29.7408H33.6558V37.3804C33.6558 41.8908 29.6454 41.9242 26.8891 41.0721Z" fill="#656263"/>
<path d="M36.0493 29.7409H37.666V37.8367H36.0493V29.7409ZM36.0493 26.5033H37.666V28.0742H36.0493V26.5033Z" fill="#656263"/>
<path d="M112.654 30.696C111.277 30.696 110.629 32.171 110.629 33.2064H114.467C114.467 32.0564 114.031 30.696 112.654 30.696ZM110.648 34.2085C110.742 37.0377 113.258 37.3919 115.504 36.3127L115.602 37.5773C112.348 38.6314 108.979 38.0064 108.979 33.7564C108.979 31.5377 110.389 29.5794 112.637 29.5794C116.452 29.5794 116.021 34.2085 116.021 34.2085H110.648Z" fill="#656263"/>
<path d="M52.341 30.696C50.9639 30.696 50.3181 32.171 50.3181 33.2064H54.1556C54.1556 32.0564 53.7202 30.696 52.341 30.696ZM50.3348 34.2085C50.4285 37.0377 52.9473 37.3919 55.191 36.3127L55.2889 37.5773C52.0368 38.6314 48.666 38.0064 48.666 33.7564C48.666 31.5377 50.0764 29.5794 52.3264 29.5794C56.141 29.5794 55.7098 34.2085 55.7098 34.2085H50.3348Z" fill="#656263"/>
<path d="M57.7017 36.1681H59.4349V37.8347H57.7017V36.1681Z" fill="#656263"/>
<path d="M65.1514 33.7573C65.1514 30.0739 68.7014 28.8885 71.793 29.9198L71.6951 31.2135C69.6701 30.2677 66.8993 30.8573 66.8993 33.7573C66.8993 36.5635 69.541 37.3677 71.7097 36.4114L71.793 37.6906C69.2305 38.5656 65.1514 37.8948 65.1514 33.7573Z" fill="#656263"/>
<path d="M77.8908 29.5792C76.7595 29.5792 75.8845 30.0813 75.3803 31.0854V26.5042H73.7637V37.8354H75.3803V33.5959C75.3803 32.3354 75.8678 30.8438 77.3574 30.8438C78.7491 30.8438 78.9616 31.9063 78.9616 33.0604V37.8354H80.5928V32.7188C80.5928 30.875 79.8324 29.5792 77.8908 29.5792Z" fill="#656263"/>
<path d="M96.4657 37.8364V33.0614C96.4657 31.9281 96.2553 30.8448 94.8615 30.8448C93.3574 30.8448 92.8886 32.2135 92.8886 33.4927V37.8364H91.2678V31.6031C91.2678 30.9885 91.2532 30.3573 91.1865 29.7406H92.7094L92.7574 31.1343C93.3094 30.1135 94.2136 29.5802 95.3803 29.5802C97.3886 29.5802 98.1011 30.8593 98.1011 32.7198V37.8364H96.4657Z" fill="#656263"/>
<path d="M45.2991 37.8364V33.0614C45.2991 31.9281 45.0886 30.8448 43.697 30.8448C42.1928 30.8448 41.722 32.2135 41.722 33.4927V37.8364H40.1032V31.6031C40.1032 30.9885 40.0866 30.3573 40.022 29.7406H41.5449L41.5928 31.1343C42.1428 30.1135 43.0491 29.5802 44.2157 29.5802C46.222 29.5802 46.9345 30.8593 46.9345 32.7198V37.8364H45.2991Z" fill="#656263"/>
<path d="M118.012 36.168H119.743V37.8367H118.012V36.168Z" fill="#656263"/>
</g>
</g>
<defs>
<clipPath id="clip0_738_8219">
<rect width="120" height="41.6667" fill="white"/>
</clipPath>
</defs>
</svg>
