<svg width="87" height="35" viewBox="0 0 87 35" fill="none" xmlns="http://www.w3.org/2000/svg">
<path d="M86.9047 35V0H0V35H86.9047ZM34.8809 3.33333L28.9286 31.5476H19.5238L13.5714 12.0238H13.4524L9.52381 31.5476H2.38095L8.45238 3.33333H17.8571L23.6905 22.8571H23.8095L27.7381 3.33333H34.8809ZM61.9047 3.33333L56.0714 31.5476H48.4524L50.9524 19.5238H42.0238L39.5238 31.5476H31.9047L37.7381 3.33333H45.3571L43.0952 14.0476H52.0238L54.2857 3.33333H61.9047ZM83.6904 4.16667L81.9047 9.7619C80.4762 9.04762 78.4524 8.45238 75.7143 8.45238C72.7381 8.45238 70.2381 8.92857 70.2381 11.1905C70.2381 15.2381 81.1905 13.6905 81.1905 22.2619C81.1905 30 73.9285 32.0238 67.3809 32.0238C64.4047 32.0238 61.0714 31.3095 58.5714 30.5952L60.3571 24.881C61.9047 25.8333 64.8809 26.5476 67.3809 26.5476C69.7619 26.5476 73.4524 26.0714 73.4524 23.2143C73.4524 18.6905 62.5 20.3571 62.5 12.5C62.5 5.23809 68.9286 3.09524 75.119 3.09524C78.4524 2.85714 81.7857 3.21428 83.6904 4.16667Z" fill="#005EB8"/>
</svg>
